<?xml version="1.0" encoding="utf-8"?>
<!-- Generator: Adobe Illustrator 21.1.0, SVG Export Plug-In . SVG Version: 6.00 Build 0)  -->
<svg version="1.1" id="Layer_1" xmlns="http://www.w3.org/2000/svg" xmlns:xlink="http://www.w3.org/1999/xlink" x="0px" y="0px"
	 viewBox="0 0 23 38.9" style="enable-background:new 0 0 23 38.9;" xml:space="preserve">
<style type="text/css">
	.st0{fill:#010101;}
	.st1{fill:#FFFFFF;}
</style>
<g>
	<rect y="8.5" class="st0" width="23" height="30.4"/>
	<path class="st0" d="M17.7,14l-1.9,0l0-5.3c0-4.5-1.4-6.8-4.2-6.8c0,0,0,0,0,0C7.4,2,7,7.1,7,8.7L7,14l-1.9,0l0-5.3
		C5.1,3.3,7.6,0,11.5,0c4,0,6.2,3.1,6.2,8.7L17.7,14z"/>
	<g>
		<ellipse transform="matrix(6.067474e-03 -1 1 6.067474e-03 -5.4475 17.1913)" class="st1" cx="5.9" cy="11.3" rx="0.6" ry="0.6"/>
	</g>
	<g>
		<ellipse transform="matrix(6.067474e-03 -1 1 6.067474e-03 5.5412 28.3819)" class="st1" cx="17" cy="11.4" rx="0.6" ry="0.6"/>
	</g>
</g>
</svg>
