<?xml version="1.0" encoding="utf-8"?>
<!-- Generator: Adobe Illustrator 21.1.0, SVG Export Plug-In . SVG Version: 6.00 Build 0)  -->
<svg version="1.1" id="Layer_1" xmlns="http://www.w3.org/2000/svg" xmlns:xlink="http://www.w3.org/1999/xlink" x="0px" y="0px"
	 viewBox="0 0 39.9 39.7" style="enable-background:new 0 0 39.9 39.7;" xml:space="preserve">
<style type="text/css">
	.st0{fill:#010101;}
</style>
<g>
	<path class="st0" d="M19.9,39.7c-2.9,0-5.9,0.1-8.8,0c-6-0.2-10.4-3.8-10.8-9.8c-0.4-6.6-0.4-13.3,0-19.9c0.4-6.1,4.8-9.7,10.9-9.8
		C17.1,0,22.9,0,28.7,0.1c6.1,0.1,10.4,3.7,10.8,9.7c0.5,6.7,0.5,13.4,0,20.1c-0.4,6-4.7,9.6-10.8,9.8
		C25.8,39.7,22.8,39.7,19.9,39.7z M19.9,36.1c0,0,0,0.1,0,0.1c2.6,0,5.2,0,7.8,0c0.4,0,0.9-0.1,1.3-0.1c4.4-0.5,6.8-2.7,7-7
		c0.3-6.1,0.3-12.3,0-18.4c-0.2-4.3-2.6-6.7-6.8-6.9c-6.2-0.3-12.4-0.3-18.6,0C6.4,3.9,4,6.3,3.8,10.5c-0.3,6.2-0.3,12.5,0,18.7
		c0.2,4.2,2.6,6.4,6.8,6.8C13.7,36.3,16.8,36.1,19.9,36.1z"/>
	<path class="st0" d="M30.1,20c0,5.7-4.6,10.1-10.3,10.1c-5.7,0-10.1-4.6-10.1-10.3c0-5.7,4.6-10.1,10.3-10.1
		C25.8,9.7,30.2,14.2,30.1,20z M26.7,19.8c0-3.6-3.1-6.7-6.7-6.7c-3.5,0-6.7,3.1-6.8,6.7c-0.1,3.6,3.2,6.9,6.8,6.8
		C23.6,26.5,26.7,23.4,26.7,19.8z"/>
	<path class="st0" d="M30.6,6.8c1.3,0,2.4,1.1,2.4,2.4c0,1.3-1.1,2.3-2.4,2.3c-1.4,0-2.4-1-2.4-2.4C28.3,7.9,29.3,6.8,30.6,6.8z"/>
</g>
</svg>
