<?xml version="1.0" encoding="utf-8"?>
<!-- Generator: Adobe Illustrator 21.1.0, SVG Export Plug-In . SVG Version: 6.00 Build 0)  -->
<svg version="1.1" id="Layer_1" xmlns="http://www.w3.org/2000/svg" xmlns:xlink="http://www.w3.org/1999/xlink" x="0px" y="0px"
	 viewBox="0 0 127 36" style="enable-background:new 0 0 127 36;" xml:space="preserve">
<style type="text/css">
	.st0{fill:#010101;}
</style>
<g>
	<g>
		<polygon class="st0" points="118.5,0 127,0 127,36 119.1,36 119.1,12.5 109,27.9 108.8,27.9 98.8,12.6 98.8,36 91,36 91,0 99.5,0 
			109,15.2 		"/>
	</g>
	<g>
		<polygon class="st0" points="32.1,0 17.4,15.3 32.8,36 23.2,36 12.1,20.7 7.9,25 7.9,36 0,36 0,0 7.9,0 7.9,15.7 22.5,0 		"/>
	</g>
	<g>
		<polygon class="st0" points="56.3,30.7 56.3,21.4 47,21.4 47,14.3 56.3,14.3 56.3,5.1 63.6,5.1 63.6,14.3 72.9,14.3 72.9,21.4 
			63.6,21.4 63.6,30.7 		"/>
	</g>
</g>
</svg>
