<?xml version="1.0" encoding="utf-8"?>
<!-- Generator: Adobe Illustrator 21.1.0, SVG Export Plug-In . SVG Version: 6.00 Build 0)  -->
<svg version="1.1" id="Layer_1" xmlns="http://www.w3.org/2000/svg" xmlns:xlink="http://www.w3.org/1999/xlink" x="0px" y="0px"
	 viewBox="0 0 122.4 200.3" style="enable-background:new 0 0 122.4 200.3;" xml:space="preserve">
<style type="text/css">
	.st0{fill:#FFFFFF;}
	.st1{fill:#010101;}
</style>
<g>
	<rect x="0" y="0" class="st0" width="122.4" height="200.3"/>
	<g>
		<path class="st1" d="M29.2,135.9c2.9,0,4.9-2,4.9-4.8l0,0c0-2.9-2-4.9-4.9-4.9l-2.7,0l0,9.7L29.2,135.9z"/>
		<path class="st1" d="M38.2,67.9c0.8,0,1.3-0.4,1.3-1.1v0c0-0.7-0.5-1.1-1.3-1.1l-1.6,0v2.2H38.2z"/>
		<rect x="24.2" y="153.9" class="st1" width="18.8" height="1.7"/>
		<path class="st1" d="M41.1,146.6h-0.7v3h0.7c1,0,1.6-0.5,1.6-1.5v0C42.7,147.2,42,146.6,41.1,146.6z"/>
		<polygon class="st1" points="26.8,66.2 25.8,68.6 27.8,68.6 		"/>
		<polygon class="st1" points="45.8,84.4 48.8,84.4 47.3,80.7 		"/>
		<path class="st1" d="M44.4,164.2c-1.2,0-2,0.9-2,2.1v0c0,1.1,0.8,2.1,2,2.1c1.2,0,2-0.9,2-2.1l0,0
			C46.4,165.1,45.6,164.2,44.4,164.2z"/>
		<polygon class="st1" points="26,146.8 25.2,148.9 26.9,148.9 		"/>
		<path class="st1" d="M85.9,68L85.9,68c0-1.4-0.9-2.3-2.3-2.3l-1.3,0l0,4.5l1.3,0C85,70.3,85.9,69.3,85.9,68z"/>
		<polygon class="st1" points="83.4,33.3 82.1,36.5 84.7,36.5 		"/>
		<polygon class="st1" points="61.2,66.2 60.2,68.6 62.2,68.6 		"/>
		<path class="st1" d="M53.9,38.8c1.7,0,3-1.4,3-3.1v0c0-1.7-1.2-3.1-3-3.1c-1.7,0-3,1.4-3,3.1v0C50.9,37.4,52.2,38.8,53.9,38.8z"/>
		<polygon class="st1" points="50.1,127.1 48,132.3 52.3,132.3 		"/>
		<polygon class="st1" points="79.8,166.8 81.6,166.8 80.7,164.7 		"/>
		<path class="st1" d="M95.7,65.6c-1.3,0-2.3,1.1-2.3,2.3v0c0,1.3,0.9,2.4,2.3,2.4c1.3,0,2.3-1.1,2.3-2.3v0
			C98,66.7,97.1,65.6,95.7,65.6z"/>
		<path class="st1" d="M72,130.8c1.7,0,2.7-0.9,2.7-2.3v0c0-1.5-1.1-2.3-2.8-2.3l-3.5,0l0,4.6L72,130.8z"/>
		<path class="st1" d="M95.1,48.9l-2.5,0v3.3l2.6,0c1.2,0,2-0.7,2-1.6v0C97.1,49.4,96.4,48.9,95.1,48.9z"/>
		<path class="st1" d="M63.2,164.2c-1.2,0-2,0.9-2,2.1v0c0,1.1,0.8,2.1,2,2.1c1.2,0,2-0.9,2-2.1v0C65.2,165.1,64.3,164.2,63.2,164.2
			z"/>
		<path class="st1" d="M0,0v200.3h122.4V0H0z M95.6,36.6c-2-0.5-3.3-1.1-3.3-3v0c0-1.8,1.4-3,3.5-3c1.4,0,2.7,0.5,3.7,1.3l-1.1,1.6
			c-0.9-0.6-1.7-1-2.6-1c-0.8,0-1.3,0.4-1.3,0.9v0c0,0.6,0.4,0.9,2.1,1.3c2,0.5,3.1,1.2,3.1,3v0c0,2-1.5,3.1-3.6,3.1
			c-1.5,0-3-0.5-4.2-1.6l1.3-1.5c0.9,0.7,1.8,1.2,2.9,1.2c0.9,0,1.4-0.4,1.4-0.9v0C97.6,37.3,97.3,37,95.6,36.6z M88.7,89.1l-2.1,0
			l-5.4-7.1l0,7.1l-2.4,0l0-11.2l2.3,0l5.3,6.9l0-6.9l2.4,0L88.7,89.1z M95.7,71.9c-2.3,0-4-1.7-4-3.9v0c0-2.1,1.7-3.9,4-3.9
			c2.3,0,4,1.7,4,3.9v0C99.7,70.1,98,71.9,95.7,71.9z M99.5,89.1l-2.5,0l0-11.2l2.5,0L99.5,89.1z M94.3,95.2h5.1v21.7l-4.7,0v-14.2
			l-6.1,9.3l-0.1,0l-6-9.2v14.1l-4.7,0l0-21.7h5.1l5.7,9.2L94.3,95.2z M58.6,55.8v2.3l-7.5,0l0-11.6l2.6,0v9.3L58.6,55.8z
			 M49.7,86.6l-4.8,0l-1,2.5l-2.5,0l4.8-11.3l2.3,0l4.8,11.3l-2.6,0L49.7,86.6z M42.2,95.2l-8.8,9.2l9.2,12.5h-5.7l-6.7-9.2
			l-2.5,2.6l0,6.6l-4.8,0l0-21.7l4.8,0l0,9.5l8.8-9.5L42.2,95.2z M29.2,123c5.1,0,8.6,3.5,8.6,8v0c0,4.5-3.5,8.1-8.6,8.1h-6.3
			l0-16.1L29.2,123z M30.9,145.2h1.5l2.4,3.1v-3.1h1.6v5.8H35l-2.5-3.2v3.2h-1.6V145.2z M44.2,152.6v4.2H22.9v-4.2H44.2z M41,151.1
			h-2.2v-5.8H41c2.1,0,3.3,1.2,3.3,2.9v0C44.3,149.8,43.1,151.1,41,151.1z M41.6,139.1l6.9-16.2l3.3,0l6.9,16.2l-3.7,0l-1.5-3.6
			l-6.8,0l-1.5,3.6L41.6,139.1z M56.8,113.7l0-5.6l-5.6,0l0-4.3l5.6,0l0-5.6l4.4,0l0,5.6l5.6,0l0,4.3l-5.6,0l0,5.6L56.8,113.7z
			 M68.1,77.8l2.4,0l0,11.2l-2.1,0L63,81.9l0,7.1l-2.4,0l0-11.2h2.3l5.3,6.9L68.1,77.8z M72.2,123c3.8,0,6.1,2,6.1,5.3v0
			c0,2.6-1.4,4.2-3.5,5l3.9,5.8l-4.1,0l-3.5-5.2l-2.8,0v5.2l-3.5,0l0-16.1L72.2,123z M80.7,64.2l2.9,0c2.4,0,4,1.6,4,3.7v0
			c0,2.1-1.6,3.8-4,3.8l-2.9,0V64.2z M82.4,30.7l2,0l4.2,9.9l-2.3,0l-0.9-2.2l-4.2,0l-0.9,2.2l-2.2,0L82.4,30.7z M75.9,46.5h8.8v2.3
			l-6.2,0v2.4l5.5,0v2.3l-5.5,0l0,2.4l6.3,0v2.3l-8.9,0L75.9,46.5z M76,64.2v7.5l-1.4,0L70.9,67v4.8l-1.6,0v-7.5l1.5,0l3.5,4.6
			l0-4.6H76z M66.3,30.7l2.6,4.2l2.6-4.2l2.3,0l0,9.9l-2.2,0l0-6.4l-2.8,4.2l-0.1,0l-2.8-4.2l0,6.4l-2.1,0l0-9.9L66.3,30.7z
			 M63.2,46.5l2.6,0l0,9.3l4.9,0l0,2.3l-7.5,0L63.2,46.5z M62,64.2l3.2,7.6l-1.7,0l-0.7-1.7l-3.2,0l-0.7,1.7l-1.7,0l3.2-7.6L62,64.2
			z M48.7,35.7c0-2.8,2.2-5.1,5.3-5.1c3,0,5.2,2.3,5.2,5.1v0c0,2.8-2.2,5.1-5.3,5.1C50.9,40.8,48.7,38.5,48.7,35.7L48.7,35.7z
			 M49.4,67.4l2-3.2l1.8,0l0,7.5l-1.6,0v-4.9l-2.1,3.2l0,0l-2.1-3.2l0,4.9h-1.6v-7.5l1.8,0L49.4,67.4z M39.6,51.2l5.5,0v2.3l-5.5,0
			v2.4l6.3,0l0,2.3l-8.9,0l0-11.6l8.8,0v2.3l-6.2,0V51.2z M37.7,30.7l0,3.9l4,0l0-3.9l2.2,0l0,9.9l-2.2,0v-4l-4,0v4l-2.2,0l0-9.9
			L37.7,30.7z M38.3,64.2c1.8,0,2.8,0.9,2.8,2.5v0c0,1.2-0.7,2-1.6,2.3l1.8,2.7l-1.9,0l-1.6-2.4l-1.3,0l0,2.4l-1.7,0l0-7.5
			L38.3,64.2z M34.1,89.1l-2.5,0l0-7.3l-3.2,4.8l-0.1,0l-3.1-4.8l0,7.3l-2.4,0l0-11.2l2.7,0l3,4.8l3-4.8l2.7,0L34.1,89.1z
			 M31.1,30.7l0,2l-3,0v7.9l-2.2,0l0-7.9l-3,0l0-2L31.1,30.7z M25.4,46.5l0,5.1l4.7-5.1l3.1,0l-4.7,4.9l5,6.7l-3.1,0l-3.6-5
			l-1.3,1.4v3.6l-2.6,0l0-11.6L25.4,46.5z M26,64.2l1.5,0l3.2,7.6l-1.7,0l-0.7-1.7h-3.2l-0.7,1.7l-1.7,0L26,64.2z M25.3,145.2h1.6
			l2.5,5.9h-1.7l-0.4-1h-2.3l-0.4,1h-1.7L25.3,145.2z M26.1,169.7c-2,0-3.4-1.5-3.4-3.4v0c0-1.9,1.4-3.5,3.5-3.5c1.3,0,2,0.4,2.6,1
			l-0.9,1.1c-0.5-0.5-1-0.8-1.7-0.8c-1.1,0-1.9,0.9-1.9,2.1v0c0,1.1,0.8,2.1,1.9,2.1c0.8,0,1.2-0.3,1.8-0.8l0.9,0.9
			C28.2,169.3,27.4,169.7,26.1,169.7z M36.2,169.6l0-2.7l-2.7,0l0,2.7l-1.5,0l0-6.7l1.5,0v2.6l2.7,0v-2.6l1.5,0v6.7L36.2,169.6z
			 M47.9,166.3c0,1.9-1.5,3.5-3.6,3.5c-2.1,0-3.5-1.5-3.5-3.4v0c0-1.9,1.5-3.5,3.6-3.5C46.5,162.8,47.9,164.4,47.9,166.3L47.9,166.3
			z M54.3,169.7c-2,0-3.4-1.5-3.4-3.4v0c0-1.9,1.4-3.5,3.5-3.5c1.3,0,2,0.4,2.6,1l-0.9,1.1c-0.5-0.5-1-0.8-1.7-0.8
			c-1.1,0-1.9,0.9-1.9,2.1v0c0,1.1,0.8,2.1,1.9,2.1c0.8,0,1.2-0.3,1.8-0.8l0.9,0.9C56.3,169.3,55.6,169.7,54.3,169.7z M54.8,154.2
			L54.8,154.2l-3.3-4.9v7.5H49v-11.6h2.8l3.1,4.9l3.1-4.9h2.8v11.6h-2.5v-7.6L54.8,154.2z M66.7,166.3c0,1.9-1.5,3.5-3.6,3.5
			c-2.1,0-3.5-1.5-3.5-3.4v0c0-1.9,1.5-3.5,3.6-3.5C65.2,162.8,66.7,164.4,66.7,166.3L66.7,166.3z M69.4,156.8h-2.6v-11.6h2.6V156.8
			z M74.7,169.6l-4.8,0l0-6.7l1.5,0l0,5.3l3.3,0L74.7,169.6z M75.6,145.2h2.6v9.3H84v2.3h-8.3V145.2z M82.7,169.6l-0.6-1.5l-2.8,0
			l-0.6,1.5l-1.5,0l2.9-6.7l1.4,0l2.9,6.7L82.7,169.6z M91.4,164.3l-2,0l0,5.3l-1.5,0l0-5.3l-2,0l0-1.4l5.5,0L91.4,164.3z
			 M99.5,169.6l-5.1,0l0-6.7l5,0l0,1.3l-3.6,0l0,1.4l3.2,0l0,1.3l-3.2,0l0,1.4l3.6,0V169.6z M96.7,156.8l-3.6-4.9l-1.3,1.4v3.5h-2.6
			v-11.6h2.6v5.1l4.7-5.1h3.1l-4.7,4.9l4.9,6.7H96.7z M95.6,139.1l-5-6.9l-1.9,1.9l0,4.9l-3.5,0l0-16.1l3.5,0l0,7l6.5-7.1l4.3,0
			l-6.6,6.8l6.9,9.3L95.6,139.1z M97.1,58.2l-2.5-3.7l-2,0v3.7l-2.6,0V46.5l5.3,0c2.7,0,4.4,1.4,4.4,3.8v0c0,1.9-1,3.1-2.5,3.6
			l2.8,4.2L97.1,58.2z"/>
	</g>
</g>
</svg>
